<?xml version="1.0" standalone="no"?>
<!DOCTYPE svg PUBLIC "-//W3C//DTD SVG 1.1//EN" "http://www.w3.org/Graphics/SVG/1.1/DTD/svg11.dtd" >
<svg xmlns="http://www.w3.org/2000/svg">
<metadata>Generated by IcoMoon</metadata>
<defs>
<font id="icomoon" horiz-adv-x="1024">
<font-face units-per-em="1024" ascent="960" descent="-64" />
<missing-glyph horiz-adv-x="1024" />
<glyph unicode="&#x20;" horiz-adv-x="512" d="" />
<glyph unicode="&#xe900;" glyph-name="play-video" d="M129.707 793.825h191.147l-107.52-138.329h119.467l107.52 138.329h81.954l-107.52-138.329h119.467l107.52 138.329h81.954l-107.52-138.329h119.467l107.52 138.329h51.132v-138.329h95.573v184.439c0 12.229-5.031 23.958-13.995 32.605s-21.115 13.505-33.792 13.505h-860.16c-12.674 0-24.829-4.858-33.79-13.505s-13.996-20.376-13.996-32.605v-184.439h95.573v138.329zM34.133 563.275v-507.208c0-12.233 5.035-23.962 13.996-32.604 8.962-8.649 21.116-13.51 33.79-13.51h860.16c12.677 0 24.829 4.861 33.792 13.51 8.963 8.643 13.995 20.371 13.995 32.604v507.208h-955.733zM416.761 194.396v322.769l258.813-161.384-258.813-161.384z" />
<glyph unicode="&#xe901;" glyph-name="image-mockup" d="M894.293 886.043h-764.587c-25.347 0-49.657-10.256-67.581-28.511s-27.993-43.016-27.993-68.832v-681.405c0-25.812 10.069-50.572 27.993-68.826 17.923-18.261 42.233-28.515 67.581-28.515h764.587c25.347 0 49.657 10.254 67.577 28.515 17.927 18.255 27.996 43.015 27.996 68.826v681.405c0 25.816-10.069 50.576-27.996 68.832-17.92 18.255-42.23 28.511-67.577 28.511zM631.467 691.356c14.177 0 28.036-4.282 39.823-12.304s20.975-19.425 26.4-32.765c5.426-13.34 6.845-28.019 4.079-42.181s-9.592-27.171-19.617-37.381c-10.024-10.21-22.796-17.164-36.701-19.98s-28.318-1.371-41.415 4.155c-13.098 5.526-24.293 14.883-32.169 26.889s-12.080 26.122-12.080 40.561c0 19.363 7.552 37.933 20.995 51.625s31.674 21.383 50.685 21.383zM840.581 181.228c-4.116-7.639-10.172-14.015-17.538-18.459s-15.763-6.793-24.323-6.799h-573.44c-8.146-0.007-16.159 2.116-23.276 6.151s-13.102 9.858-17.388 16.916c-4.286 7.059-6.728 15.114-7.097 23.402s1.35 16.534 4.991 23.962l167.253 340.698c3.85 7.859 9.716 14.51 16.977 19.248s15.645 7.388 24.263 7.667c8.693 0.493 17.346-1.531 24.957-5.838s13.869-10.719 18.051-18.498l132.608-231.53 73.878 91.843c4.798 5.953 10.916 10.661 17.849 13.737s14.484 4.432 22.032 3.957c7.548-0.475 14.877-2.768 21.386-6.69s12.009-9.361 16.052-15.871l121.426-194.688c4.499-7.339 6.991-15.77 7.229-24.419 0.232-8.649-1.802-17.203-5.891-24.788z" />
<glyph unicode="&#xe902;" glyph-name="link" d="M430.352 197.407l-112.622-112.62c-46.69-46.694-122.302-46.694-168.953-0.014-46.66 46.66-46.66 122.279-0.009 168.933l225.281 225.283c46.651 46.653 122.27 46.653 168.921 0 15.552-15.552 40.767-15.552 56.319 0s15.552 40.767 0 56.319c-77.756 77.756-203.803 77.756-281.56 0l-225.28-225.279c-77.756-77.758-77.756-203.805 0-281.561 77.747-77.797 203.803-77.797 281.601 0l112.621 112.62c15.552 15.558 15.552 40.769 0 56.32s-40.77 15.551-56.321 0zM931.54 867.563c-77.756 77.756-203.844 77.756-281.603 0l-135.12-135.121c-15.552-15.551-15.552-40.767 0-56.319s40.767-15.552 56.319 0l135.121 135.121c46.65 46.653 122.31 46.653 168.963 0 46.653-46.651 46.653-122.27 0-168.922l-247.782-247.783c-46.653-46.653-122.27-46.653-168.922 0-15.551 15.551-40.767 15.551-56.319 0s-15.552-40.767 0-56.319c77.756-77.756 203.803-77.756 281.559 0l247.783 247.781c77.756 77.756 77.756 203.805 0 281.561z" />
<glyph unicode="&#xe903;" glyph-name="text-marker" d="M938.359 925.644h-577.628c-16.46 0.501 27.589 0 27.589 0l-4.258-0.286c-103.989-4.652-181.713-31.92-232.669-77.759-50.742-45.124-83.127-114.188-83.127-198.603 0-85.882 25.407-153.55 73.358-202.718 66.129-68.992 170.333-104.275 290.031-104.275 36.572 0-37.68 1.36-9.555 8.445v-380.315h122.561v841.931h122.167v-841.931h125.999v841.931h145.497l0.034 113.579z" />
<glyph unicode="&#xe904;" glyph-name="heading" d="M153.6 448c0 32.991 26.744 59.733 59.733 59.733h597.333c32.993 0 59.733-26.743 59.733-59.733s-26.74-59.733-59.733-59.733h-597.333c-32.989 0-59.733 26.743-59.733 59.733zM213.333 925.867c32.99 0 59.733-26.744 59.733-59.733v-836.267c0-32.993-26.743-59.733-59.733-59.733s-59.733 26.74-59.733 59.733v836.267c0 32.99 26.744 59.733 59.733 59.733zM810.667 925.867c32.993 0 59.733-26.744 59.733-59.733v-836.267c0-32.993-26.74-59.733-59.733-59.733s-59.733 26.74-59.733 59.733v836.267c0 32.99 26.74 59.733 59.733 59.733zM631.467 29.867c0 32.993 26.743 59.733 59.733 59.733h238.933c32.993 0 59.733-26.74 59.733-59.733s-26.74-59.733-59.733-59.733h-238.933c-32.991 0-59.733 26.74-59.733 59.733zM631.467 866.133c0 32.99 26.743 59.733 59.733 59.733h238.933c32.993 0 59.733-26.744 59.733-59.733s-26.74-59.733-59.733-59.733h-238.933c-32.991 0-59.733 26.743-59.733 59.733zM34.133 29.867c0 32.993 26.744 59.733 59.733 59.733h238.933c32.99 0 59.733-26.74 59.733-59.733s-26.743-59.733-59.733-59.733h-238.933c-32.99 0-59.733 26.74-59.733 59.733zM34.133 866.133c0 32.99 26.744 59.733 59.733 59.733h238.933c32.99 0 59.733-26.744 59.733-59.733s-26.743-59.733-59.733-59.733h-238.933c-32.99 0-59.733 26.743-59.733 59.733z" />
<glyph unicode="&#xe905;" glyph-name="info-exclamation" d="M512 960c-101.264 0-200.254-30.028-284.452-86.287s-149.822-136.223-188.574-229.778c-38.752-93.556-48.891-196.503-29.136-295.82s68.519-190.546 140.124-262.154c71.604-71.603 162.834-120.366 262.152-140.119 99.318-19.758 202.266-9.62 295.818 29.133 93.558 38.753 173.522 104.376 229.78 188.575s86.287 183.188 86.287 284.452c-0.148 135.745-54.139 265.888-150.124 361.874-95.99 95.987-226.13 149.977-361.876 150.126zM512 192c-10.126 0-20.025 3.005-28.445 8.627-8.42 5.627-14.982 13.624-18.857 22.979s-4.889 19.651-2.913 29.583c1.975 9.933 6.852 19.057 14.012 26.214 7.16 7.163 16.283 12.037 26.215 14.013s20.229 0.963 29.583-2.913c9.354-3.876 17.352-10.44 22.979-18.857 5.627-8.422 8.627-18.319 8.627-28.447 0-13.578-5.396-26.604-14.996-36.204s-22.625-14.996-36.204-14.996zM563.2 396.8c0-13.578-5.396-26.604-14.996-36.204s-22.625-14.996-36.204-14.996c-13.579 0-26.602 5.396-36.204 14.996s-14.996 22.625-14.996 36.204v256c0 13.579 5.394 26.602 14.996 36.204s22.625 14.996 36.204 14.996c13.578 0 26.604-5.394 36.204-14.996s14.996-22.625 14.996-36.204v-256z" />
<glyph unicode="&#xe906;" glyph-name="upload-outline" d="M102.4 41.021h819.2v210.043h-277.299c11.344 19.593 18.332 41.445 20.541 64 0.479 4.895 0.733 9.822 0.758 14.766v26.255h256c27.159 0 53.205-11.065 72.407-30.761 19.204-19.696 29.993-46.408 29.993-74.26v-210.043c0-27.853-10.789-54.567-29.993-74.26-19.202-19.696-45.249-30.761-72.407-30.761h-819.2c-27.158 0-53.204 11.065-72.408 30.761-19.204 19.694-29.992 46.408-29.992 74.26v210.043c0 27.853 10.789 54.565 29.992 74.26s45.25 30.761 72.408 30.761h256v-26.255c0.025-4.944 0.279-9.871 0.758-14.766 2.21-22.555 9.198-44.407 20.541-64h-277.299v-210.043zM799.965 105.021c11.725 9.624 19.235 24.422 19.235 41.021s-7.51 31.398-19.235 41.021c-8.759 7.191-19.872 11.489-31.965 11.489s-23.206-4.299-31.965-11.489c-11.725-9.624-19.235-24.422-19.235-41.021s7.51-31.398 19.235-41.021c8.759-7.191 19.872-11.489 31.965-11.489s23.206 4.299 31.965 11.489zM460.8 329.83c0-13.926 5.394-27.283 14.995-37.13 9.603-9.849 22.626-15.38 36.205-15.38s26.601 5.532 36.205 15.38c9.601 9.847 14.995 23.204 14.995 37.13v450.857l117.402-120.408c9.656-9.564 22.589-14.858 36.014-14.737 13.425 0.119 26.266 5.642 35.758 15.378 9.495 9.736 14.879 22.905 14.995 36.674s-5.044 27.034-14.371 36.936l-204.8 210.043c-4.755 4.89-10.406 8.77-16.626 11.417-6.222 2.647-12.89 4.010-19.624 4.010s-13.402-1.363-19.624-4.010c-6.22-2.647-11.87-6.527-16.626-11.417l-204.8-210.043c-9.601-9.859-14.989-23.226-14.979-37.161s5.417-27.296 15.030-37.14c9.613-9.847 22.649-15.372 36.235-15.362 13.586 0.008 26.612 5.554 36.213 15.413l117.402 120.408v-450.857zM768 157.532c-8.585 0-12.8-6.679-12.8-11.489s4.215-11.489 12.8-11.489c8.585 0 12.8 6.679 12.8 11.489s-4.215 11.489-12.8 11.489z" />
<glyph unicode="&#xe907;" glyph-name="faq-question" d="M767.781 937.123h-511.561c-34.126 2.061-68.302-3.144-100.269-15.269s-60.997-30.896-85.172-55.071c-24.175-24.176-42.946-53.206-55.071-85.172s-17.33-66.142-15.269-100.269v-306.936c-2.061-34.127 3.144-68.302 15.269-100.269s30.896-60.999 55.071-85.173c24.175-24.174 53.205-42.942 85.172-55.069s66.142-17.328 100.269-15.272v-109.034c0.001-9.26 2.514-18.344 7.273-26.288s11.583-14.446 19.746-18.812c8.163-4.367 17.36-6.444 26.608-5.998 9.248 0.453 18.201 3.401 25.905 8.536l227.405 151.596h204.624c34.128-2.055 68.301 3.145 100.272 15.272 31.963 12.127 60.994 30.896 85.168 55.069s42.949 53.206 55.069 85.173c12.127 31.967 17.335 66.142 15.272 100.269v306.936c2.063 34.127-3.145 68.303-15.272 100.269-12.12 31.966-30.896 60.996-55.069 85.172s-53.204 42.945-85.168 55.071c-31.971 12.125-66.143 17.329-100.272 15.269zM512.102 314.748h-0.205c-10.167 0.026-19.907 4.087-27.083 11.29s-11.198 16.96-11.184 27.126c0.013 10.167 4.061 19.913 11.254 27.097s16.945 11.22 27.113 11.22c10.167 0 19.918-4.036 27.112-11.22s11.241-16.93 11.254-27.097c0.013-10.167-4.009-19.923-11.184-27.126s-16.911-11.264-27.077-11.29zM576.397 527.116c-19.783-13.288-26.078-22.080-26.078-36.119v-10.589c0-10.176-4.043-19.934-11.238-27.129s-16.954-11.238-27.129-11.238c-10.176 0-19.934 4.042-27.129 11.238s-11.238 16.954-11.238 27.129v10.589c0.561 20.376 6.374 40.261 16.876 57.731s25.338 31.931 43.070 41.983c18.883 12.789 24.978 21.23 24.978 34.67 0.007 12.336-4.887 24.168-13.605 32.895s-20.544 13.634-32.88 13.64c-12.336 0.007-24.168-4.887-32.895-13.605s-13.634-20.544-13.64-32.88c0-10.176-4.042-19.934-11.238-27.129s-16.954-11.238-27.129-11.238c-10.176 0-19.934 4.042-27.129 11.238s-11.238 16.954-11.238 27.129c0.007 32.686 12.998 64.031 36.116 87.139s54.468 36.086 87.154 36.079c32.686-0.007 64.031-12.998 87.139-36.116s36.086-54.468 36.079-87.154c-0.54-20.056-6.238-39.634-16.546-56.846s-24.875-31.477-42.301-41.42z" />
<glyph unicode="&#xe908;" glyph-name="publish" horiz-adv-x="805" d="M779.549 960v-1024h-754.527v417.954h0.539v604.968c27.486 0 753.988 1.078 753.988 1.078zM302.58 683.251l43.385-32.067 29.373 39.343v-212.615h53.895v212.615l29.103-39.343 43.385 32.067-99.436 133.928-99.705-133.928zM631.338 150.769h-458.105v-53.892h458.105v53.892zM631.338 285.507h-458.105v-53.895h458.105v53.895zM644.812 485.456h-53.895c0-35.839-29.372-65.212-65.212-65.212h-247.108c-35.84 0-64.943 29.373-64.943 65.212h-53.895c0-65.482 53.356-119.107 118.837-119.107h247.108c65.482 0 119.107 53.625 119.107 119.107z" />
<glyph unicode="&#xe909;" glyph-name="more-dots" horiz-adv-x="5222" d="M4632.596-64c282.767 0 512 229.231 512 512s-229.233 512-512 512c-282.778 0-512-229.231-512-512s229.222-512 512-512zM2584.596-64c282.767 0 512 229.231 512 512s-229.233 512-512 512c-282.778 0-512-229.231-512-512s229.222-512 512-512zM536.592-64c282.769 0 512.004 229.231 512.004 512s-229.235 512-512.004 512c-282.77 0-512-229.231-512-512s229.23-512 512-512z" />
<glyph unicode="&#xe90a;" glyph-name="information-list" d="M992 640h-405.331c-17.664 0-32-14.336-32-32s14.336-32 32-32h405.331c17.664 0 32 14.336 32 32s-14.336 32-32 32zM992 512h-405.331c-17.664 0-32-14.336-32-32s14.336-32 32-32h405.331c17.664 0 32 14.336 32 32s-14.336 32-32 32zM992 384h-405.331c-17.664 0-32-14.336-32-32s14.336-32 32-32h405.331c17.664 0 32 14.336 32 32s-14.336 32-32 32zM992 256h-405.331c-17.664 0-32-14.336-32-32s14.336-32 32-32h405.331c17.664 0 32 14.336 32 32s-14.336 32-32 32zM992 128h-405.331c-17.664 0-32-14.336-32-32s14.336-32 32-32h405.331c17.664 0 32 14.336 32 32s-14.336 32-32 32zM74.666 320h320c41.174 0 74.667 33.494 74.667 74.666v170.667c0 41.173-33.494 74.666-74.667 74.666h-320c-41.173 0-74.666-33.494-74.666-74.666v-170.667c0-41.173 33.493-74.666 74.666-74.666zM74.666-64h320c41.174 0 74.667 33.492 74.667 74.664v170.672c0 41.172-33.494 74.664-74.667 74.664h-320c-41.173 0-74.666-33.492-74.666-74.664v-170.672c0-41.172 33.493-74.664 74.666-74.664zM992 0h-405.331c-17.664 0-32-14.336-32-32s14.336-32 32-32h405.331c17.664 0 32 14.336 32 32s-14.336 32-32 32zM949.328 960h-533.331c-41.174 0-74.666-33.493-74.666-74.666v-106.667c0-41.173 33.493-74.666 74.666-74.666h533.331c41.172 0 74.672 33.494 74.672 74.666v106.667c0 41.173-33.499 74.666-74.672 74.666zM128 704c70.693 0 128 57.307 128 128s-57.307 128-128 128c-70.692 0-128-57.308-128-128s57.308-128 128-128z" />
<glyph unicode="&#xe90b;" glyph-name="user-info" horiz-adv-x="951" d="M215.164-64h520.537c81.064 0 149.328 68.264 149.328 149.336v725.331c0 81.067-68.264 149.334-149.328 149.334h-520.537c-81.066 0-149.333-68.267-149.333-149.334v-725.331c0-81.072 68.267-149.336 149.333-149.336zM475.43 827.734c64.001 0 119.467-55.467 119.467-119.467s-55.466-119.466-119.467-119.466c-68.266 0-119.466 55.466-119.466 119.466s51.2 119.467 119.466 119.467zM262.097 366.934c17.066 68.266 64 128 128 153.6 25.6-12.8 55.466-17.067 85.333-17.067s59.734 8.534 85.334 17.067c64-25.6 110.934-85.334 128-153.6 4.267-21.334 0-42.667-12.8-55.467s-34.134-25.6-55.466-25.6h-290.134c-21.334 0-42.666 8.534-55.466 25.6-12.8 12.8-17.067 34.134-12.8 55.467zM236.497 153.6h482.134c25.598 0 42.669-17.064 42.669-42.664 0-21.336-17.072-42.672-42.669-42.672h-482.134c-21.334 0-42.667 21.336-42.667 42.672 0 25.6 17.067 42.664 42.667 42.664z" />
<glyph unicode="&#xe90c;" glyph-name="trash-bin" horiz-adv-x="956" d="M867.239 724.66h-194.688v100.604c0 26.681-10.256 52.27-28.511 71.137s-43.016 29.466-68.832 29.466h-194.687c-25.817 0-50.576-10.599-68.832-29.466s-28.511-44.456-28.511-71.137v-100.604h-194.686c-12.909 0-25.289-5.3-34.416-14.733s-14.256-22.228-14.256-35.569c0-13.341 5.128-26.135 14.256-35.569s21.508-14.733 34.416-14.733h48.671v-553.318c0-26.685 10.256-52.272 28.511-71.141 18.256-18.862 43.016-29.464 68.832-29.464h486.717c25.818 0 50.579 10.602 68.833 29.464 18.255 18.869 28.508 44.455 28.508 71.141v553.318h48.674c12.909 0 25.286 5.3 34.413 14.733s14.254 22.228 14.254 35.569c0 13.341-5.127 26.135-14.254 35.569s-21.504 14.733-34.413 14.733zM380.522 825.263h194.687v-100.604h-194.687v100.604zM429.194 171.343c0-13.346-5.128-26.139-14.256-35.574-9.127-9.428-21.507-14.732-34.416-14.732s-25.288 5.304-34.416 14.732c-9.127 9.434-14.255 22.228-14.255 35.574v352.11c0 13.341 5.128 26.135 14.255 35.569s21.507 14.733 34.416 14.733c12.909 0 25.289-5.3 34.416-14.733s14.256-22.228 14.256-35.569v-352.11zM623.88 171.343c0-13.346-5.128-26.139-14.255-35.574-9.128-9.428-21.507-14.732-34.416-14.732s-25.289 5.304-34.417 14.732c-9.127 9.434-14.255 22.228-14.255 35.574v352.11c0 13.341 5.128 26.135 14.255 35.569s21.508 14.733 34.417 14.733c12.909 0 25.288-5.3 34.416-14.733s14.255-22.228 14.255-35.569v-352.11z" />
<glyph unicode="&#xe90d;" glyph-name="edit" horiz-adv-x="956" d="M743.779 888.76l-76.291-80.578 175.626-185.499 76.24 80.579c11.53 12.179 20.685 26.638 26.924 42.553s9.455 32.971 9.455 50.196c0 17.226-3.215 34.283-9.455 50.197s-15.394 30.373-26.924 42.552c-23.668 23.82-55.098 37.107-87.791 37.107-32.686 0-64.123-13.287-87.784-37.107zM772.881 548.505l-175.624 185.498-234.681-247.663c-6.943-7.32-11.678-16.648-13.609-26.808l-26.126-139.123c-1.607-8.471-1.208-17.231 1.161-25.5s6.635-15.793 12.419-21.903c5.784-6.11 12.907-10.615 20.737-13.114 7.83-2.505 16.123-2.929 24.143-1.229l131.719 27.805c9.601 2.048 18.414 7.049 25.331 14.374l234.53 247.664zM362.576 486.34c-6.943-7.32-11.678-16.648-13.609-26.808l-26.126-139.123c-1.607-8.471-1.208-17.231 1.161-25.5s6.635-15.793 12.419-21.903c5.784-6.11 12.907-10.615 20.737-13.114 7.83-2.505 16.123-2.929 24.143-1.229l131.719 27.805c9.601 2.048 18.414 7.049 25.331 14.374l234.53 247.664-175.624 185.498-234.681-247.663zM585.733 239.568c-13.878-14.636-31.535-24.617-50.76-28.699l-175.626-37.089c-16.032-3.379-32.608-2.533-48.255 2.478-15.647 5.004-29.882 14.015-41.443 26.221-11.56 12.213-20.089 27.245-24.829 43.773s-5.544 34.036-2.342 50.97l35.116 185.498c3.863 20.306 13.314 38.956 27.168 53.614l244.366 258.103c-1.359 4.891-2.061 9.959-2.086 15.056h-439.412c-28.538-0.027-55.898-12.014-76.077-33.326s-31.527-50.213-31.553-80.354v-612.001c0.026-30.14 11.374-59.037 31.553-80.35s47.54-33.3 76.077-33.328h579.426c28.535 0.027 55.897 12.015 76.076 33.328s31.526 50.21 31.553 80.35v376.456l-208.952-220.699z" />
<glyph unicode="&#xe90e;" glyph-name="plus" horiz-adv-x="956" d="M902.636 501.096h-371.672v371.674c0 14.082-5.594 27.587-15.552 37.545s-23.463 15.552-37.545 15.552c-14.082 0-27.587-5.594-37.545-15.552s-15.552-23.463-15.552-37.545v-371.674h-371.674c-14.082 0-27.587-5.594-37.545-15.552s-15.552-23.463-15.552-37.545c0-14.082 5.594-27.587 15.552-37.545s23.463-15.552 37.545-15.552h371.674v-371.672c0-14.083 5.594-27.587 15.552-37.547s23.463-15.551 37.545-15.551c14.082 0 27.587 5.591 37.545 15.551s15.552 23.463 15.552 37.547v371.672h371.672c14.083 0 27.587 5.594 37.547 15.552s15.551 23.463 15.551 37.545c0 14.082-5.591 27.587-15.551 37.545s-23.463 15.552-37.547 15.552z" />
<glyph unicode="&#xe90f;" glyph-name="modules-list" horiz-adv-x="799" d="M736.846 960h-680.86c-30.702 0-55.986-25.284-55.986-55.986v-912.028c0-30.702 25.284-55.986 55.986-55.986h680.86c30.704 0 55.986 25.285 55.986 55.986v912.028c0 30.702-25.283 55.986-55.986 55.986zM131.838 846.222h364.81c10.836 0 18.061-7.224 18.061-18.060s-7.225-18.060-18.061-18.060h-364.81c-10.836 0-18.060 7.224-18.060 18.060s7.224 18.060 18.060 18.060zM660.994 49.779h-529.156c-10.836 0-18.060 7.223-18.060 18.059s7.224 18.059 18.060 18.059h529.156c10.836 0 18.061-7.223 18.061-18.059s-9.032-18.059-18.061-18.059zM660.994 176.198h-529.156c-10.836 0-18.060 7.223-18.060 18.059s7.224 18.061 18.060 18.061h529.156c10.836 0 18.061-7.225 18.061-18.061s-9.032-18.059-18.061-18.059zM660.994 302.617h-529.156c-10.836 0-18.060 7.225-18.060 18.061s7.224 18.059 18.060 18.059h529.156c10.836 0 18.061-7.223 18.061-18.059 0-9.030-9.032-18.061-18.061-18.061zM660.994 429.038h-529.156c-10.836 0-18.060 7.223-18.060 18.059s7.224 18.059 18.060 18.059h529.156c10.836 0 18.061-7.223 18.061-18.059 0-9.030-9.032-18.059-18.061-18.059zM660.994 557.263h-529.156c-10.836 0-18.060 7.223-18.060 18.059s7.224 18.061 18.060 18.061h529.156c10.836 0 18.061-7.225 18.061-18.061s-9.032-18.059-18.061-18.059zM660.994 683.682h-529.156c-10.836 0-18.060 7.225-18.060 18.061s7.224 18.059 18.060 18.059h529.156c10.836 0 18.061-7.223 18.061-18.059s-9.032-18.061-18.061-18.061z" />
<glyph unicode="&#xe910;" glyph-name="play" horiz-adv-x="918" d="M1.002 871.062c0 53.805 57.764 87.846 104.833 61.78l763.954-423.063c48.541-26.882 48.541-96.676 0-123.558l-763.954-423.064c-47.069-26.066-104.833 7.977-104.833 61.783v846.122z" />
<glyph unicode="&#xe911;" glyph-name="stack" horiz-adv-x="942" d="M469.334 960c-233.259 0-469.334-70.349-469.334-204.8v-614.4c0-134.451 236.075-204.8 469.334-204.8 233.257 0 469.332 70.349 469.332 204.8v614.4c0 134.451-236.075 204.8-469.332 204.8zM834.37 140.8c0-29.696-127.918-102.4-365.036-102.4s-365.038 72.704-365.038 102.4v174.080c90.529-47.258 228.096-71.68 365.038-71.68 136.94 0 274.508 24.422 365.036 71.68v-174.080zM834.37 448c0-29.696-127.918-102.4-365.036-102.4s-365.038 72.704-365.038 102.4v174.080c90.529-47.258 228.096-71.68 365.038-71.68 136.94 0 274.508 24.422 365.036 71.68v-174.080zM469.334 652.8c-237.117 0-365.038 72.704-365.038 102.4s127.92 102.4 365.038 102.4c237.117 0 365.036-72.704 365.036-102.4s-127.918-102.4-365.036-102.4z" />
<glyph unicode="&#xe912;" glyph-name="clipboard" horiz-adv-x="860" d="M752.941 857.6h-150.587c0 27.158-10.578 53.204-29.405 72.408s-44.362 29.992-70.988 29.992h-150.587c-26.626 0-52.163-10.789-70.988-29.992-18.827-19.204-29.405-45.25-29.405-72.408h-150.588c-26.626 0-52.161-10.788-70.988-29.992s-29.404-45.25-29.404-72.408v-716.8c0-27.159 10.577-53.205 29.404-72.407 18.827-19.204 44.362-29.993 70.988-29.993h652.549c26.626 0 52.161 10.789 70.988 29.993 18.827 19.202 29.405 45.249 29.405 72.407v716.8c0 27.158-10.578 53.204-29.405 72.408s-44.362 29.992-70.988 29.992zM351.373 857.6h150.587v-153.6h-150.587v153.6zM752.941 38.4h-652.549v716.8h150.588v-51.2c-13.312 0-26.081-5.394-35.494-14.995-9.415-9.603-14.702-22.626-14.702-36.205s5.288-26.601 14.702-36.205c9.413-9.601 22.182-14.995 35.494-14.995h351.373c13.312 0 26.079 5.394 35.494 14.995 9.413 9.603 14.701 22.626 14.701 36.205s-5.288 26.601-14.701 36.205c-9.415 9.601-22.182 14.995-35.494 14.995v51.2h150.587v-716.8zM602.354 499.2h-351.373c-13.312 0-26.081-5.394-35.494-14.995-9.415-9.603-14.702-22.626-14.702-36.205s5.288-26.601 14.702-36.205c9.413-9.601 22.182-14.995 35.494-14.995h351.373c13.312 0 26.079 5.394 35.494 14.995 9.413 9.603 14.701 22.626 14.701 36.205s-5.288 26.601-14.701 36.205c-9.415 9.601-22.182 14.995-35.494 14.995zM602.354 294.4h-351.373c-13.312 0-26.081-5.394-35.494-14.995-9.415-9.603-14.702-22.626-14.702-36.205s5.288-26.601 14.702-36.205c9.413-9.601 22.182-14.995 35.494-14.995h351.373c13.312 0 26.079 5.394 35.494 14.995 9.413 9.603 14.701 22.626 14.701 36.205s-5.288 26.601-14.701 36.205c-9.415 9.601-22.182 14.995-35.494 14.995z" />
<glyph unicode="&#xe913;" glyph-name="home" d="M1009.611 484.205l-461.367 460.805c-9.613 9.599-22.651 14.991-36.243 14.991s-26.63-5.392-36.243-14.991l-461.366-460.805c-9.338-9.656-14.505-22.589-14.388-36.014s5.508-26.268 15.013-35.76c9.504-9.492 22.362-14.877 35.803-14.993s26.39 5.042 36.058 14.369l15.020 15.004v-388.407c0-27.159 10.802-53.205 30.029-72.409s45.305-29.993 72.497-29.993h153.789c13.595 0 26.634 5.394 36.248 14.995 9.613 9.603 15.014 22.626 15.014 36.205v204.802c0 13.58 5.403 26.604 15.016 36.205 9.613 9.603 22.653 14.998 36.248 14.998h102.527c13.595 0 26.634-5.394 36.248-14.998 9.613-9.601 15.016-22.624 15.016-36.205v-204.802c0-13.578 5.401-26.601 15.014-36.205 9.613-9.601 22.653-14.995 36.248-14.995h153.79c27.191 0 53.268 10.789 72.495 29.993 19.229 19.204 30.030 45.251 30.030 72.409v388.407l15.020-15.004c9.669-9.327 22.618-14.486 36.059-14.369s26.298 5.501 35.803 14.993c9.505 9.492 14.895 22.335 15.012 35.76s-5.050 26.358-14.387 36.014z" />
<glyph unicode="&#xe914;" glyph-name="box-grid" d="M100.721 859.279v-245.507h245.507v245.507h-245.507zM0 860.186c0 55.126 44.688 99.814 99.814 99.814h247.324c55.124 0 99.813-44.688 99.813-99.814v-247.324c0-55.124-44.689-99.813-99.813-99.813h-247.324c-55.126 0-99.814 44.689-99.814 99.813v247.324zM677.771 859.279v-245.507h245.508v245.507h-245.508zM577.049 860.186c0 55.126 44.689 99.814 99.813 99.814h247.325c55.126 0 99.813-44.688 99.813-99.814v-247.324c0-55.124-44.687-99.813-99.813-99.813h-247.325c-55.124 0-99.813 44.689-99.813 99.813v247.324zM100.721 282.229v-245.508h245.507v245.508h-245.507zM0 283.138c0 55.124 44.688 99.813 99.814 99.813h247.324c55.124 0 99.813-44.689 99.813-99.813v-247.325c0-55.126-44.689-99.813-99.813-99.813h-247.324c-55.126 0-99.814 44.687-99.814 99.813v247.325zM677.771 282.229v-245.508h245.508v245.508h-245.508zM577.049 283.138c0 55.124 44.689 99.813 99.813 99.813h247.325c55.126 0 99.813-44.689 99.813-99.813v-247.325c0-55.126-44.687-99.813-99.813-99.813h-247.325c-55.124 0-99.813 44.687-99.813 99.813v247.325z" />
<glyph unicode="&#xe915;" glyph-name="send" horiz-adv-x="757" d="M756.932-8.196l-5.454 879.649c-0.049 8.642-2.636 17.118-7.444 24.401-4.813 7.282-11.638 13.059-19.656 16.628-8.014 3.569-16.878 4.778-25.507 3.48-8.633-1.298-16.66-5.047-23.116-10.793l-657.356-584.545c-6.254-5.565-10.775-12.773-13.048-20.805s-2.206-16.562 0.193-24.625c2.399-8.058 7.034-15.32 13.376-20.956s14.135-9.421 22.492-10.917l310.497-55.933 168.065 377.478c4.799 10.787 13.771 19.189 24.937 23.357s23.61 3.763 34.598-1.129c10.984-4.892 19.612-13.868 23.988-24.954 4.372-11.086 4.132-23.375-0.672-34.162l-168.064-377.476 249.37-193.34c6.705-5.196 14.732-8.446 23.156-9.381 8.428-0.931 16.918 0.485 24.509 4.096 7.587 3.611 13.966 9.269 18.41 16.326 4.448 7.061 6.776 15.24 6.727 23.601z" />
<glyph unicode="&#xe916;" glyph-name="opened-eye" horiz-adv-x="1303" d="M651.636 936.727c-351.102 0-651.636-372.55-651.636-488.727 0-121.623 231.070-488.727 651.636-488.727s651.636 367.104 651.636 488.727c0 116.177-300.535 488.727-651.636 488.727zM651.636 238.545c-38.664 0-76.46 12.284-108.609 35.299s-57.204 55.728-72.001 94c-14.796 38.273-18.668 80.388-11.124 121.017s26.162 77.952 53.502 107.244c27.34 29.293 62.173 49.241 100.094 57.324s77.228 3.934 112.95-11.919c35.721-15.853 66.252-42.7 87.734-77.144s32.946-74.94 32.946-116.366c0-55.551-20.596-108.826-57.258-148.107s-86.386-61.348-138.233-61.348z" />
<glyph unicode="&#xe917;" glyph-name="search-outline" d="M409.605 140.8c-81.012 0-160.205 24.026-227.564 69.030s-119.859 108.979-150.861 183.823c-31.002 74.844-39.114 157.201-23.309 236.656s54.816 152.438 112.1 209.722c57.284 57.284 130.269 96.294 209.724 112.099s161.814 7.693 236.659-23.309c74.843-31.002 138.817-83.501 183.822-150.859 45.011-67.359 69.037-146.55 69.037-227.562-0.128-108.595-43.322-212.708-120.109-289.498-76.789-76.787-180.902-119.981-289.499-120.102zM409.605 857.6c-60.759 0-120.154-18.017-170.673-51.773s-89.894-81.734-113.146-137.867c-23.251-56.133-29.335-117.901-17.482-177.492s41.112-114.329 84.076-157.292c42.963-42.963 97.701-72.223 157.293-84.076s121.36-5.766 177.494 17.485c56.134 23.251 104.113 62.625 137.87 113.143 33.754 50.519 51.77 109.913 51.77 170.671-0.077 81.45-32.474 159.54-90.065 217.133-57.594 57.594-135.686 89.985-217.136 90.067zM972.813-64c-13.581 0-26.598 5.402-36.198 15.002l-204.806 204.8c-9.325 9.658-14.483 22.592-14.368 36.013 0.115 13.427 5.498 26.266 14.995 35.763 9.491 9.491 22.33 14.874 35.757 14.989 13.427 0.122 26.355-5.043 36.013-14.368l204.806-204.8c7.155-7.162 12.032-16.282 14.003-26.214 1.978-9.926 0.96-20.224-2.912-29.574-3.872-9.357-10.432-17.35-18.854-22.976-8.416-5.626-18.31-8.634-28.435-8.634z" />
<glyph unicode="&#xe918;" glyph-name="filter" d="M46.695 886.478h0.001l-0.147 0.192c-2.218 2.892-3.497 6.232-3.807 9.632-0.31 3.398 0.347 6.853 1.965 10.001 1.622 3.157 4.185 5.944 7.516 7.944 3.339 2.005 7.267 3.102 11.333 3.086v0h896.888c4.070 0.016 7.996-1.082 11.332-3.086 3.337-2 5.897-4.787 7.518-7.944 1.621-3.148 2.278-6.603 1.963-10.001-0.307-3.4-1.587-6.74-3.806-9.632l-0.145-0.192-380.337-501.709v-364.844l-169.936 123.947v240.897l-380.337 501.709zM960.273 960h-896.55c-11.808 0.046-23.396-3.13-33.459-9.17s-18.204-14.707-23.506-25.024c-5.302-10.317-7.555-21.876-6.507-33.377s5.358-22.487 12.443-31.725l947.579 99.297z" />
<glyph unicode="&#xe919;" glyph-name="letter" horiz-adv-x="1138" d="M1024 922.083h-910.222c-62.748 0-113.778-53.156-113.778-118.519v-711.109c0-65.365 51.029-118.522 113.778-118.522h910.222c62.748 0 113.778 53.157 113.778 118.522v711.109c0 65.363-51.029 118.519-113.778 118.519zM113.778 92.456v711.109h910.222l0.057-711.109h-910.279zM853.333 685.046h-341.333c-31.46 0-56.889-26.548-56.889-59.259s25.429-59.259 56.889-59.259h341.333c31.46 0 56.889 26.548 56.889 59.259s-25.429 59.259-56.889 59.259zM853.333 507.269h-341.333c-31.46 0-56.889-26.548-56.889-59.259s25.429-59.259 56.889-59.259h341.333c31.46 0 56.889 26.548 56.889 59.259s-25.429 59.259-56.889 59.259zM853.333 329.489h-341.333c-31.46 0-56.889-26.544-56.889-59.255s25.429-59.261 56.889-59.261h341.333c31.46 0 56.889 26.55 56.889 59.261s-25.429 59.255-56.889 59.255zM284.444 566.528c31.419 0 56.889 26.531 56.889 59.259s-25.47 59.259-56.889 59.259c-31.419 0-56.889-26.531-56.889-59.259s25.47-59.259 56.889-59.259zM284.444 388.75c31.419 0 56.889 26.531 56.889 59.259s-25.47 59.259-56.889 59.259c-31.419 0-56.889-26.531-56.889-59.259s25.47-59.259 56.889-59.259zM284.444 210.972c31.419 0 56.889 26.533 56.889 59.261s-25.47 59.255-56.889 59.255c-31.419 0-56.889-26.527-56.889-59.255s25.47-59.261 56.889-59.261z" />
</font>
</defs>
</svg>
